<svg width="1728" height="6237" viewBox="0 0 1728 6237" fill="none" xmlns="http://www.w3.org/2000/svg">
<g clip-path="url(#clip0_22_20)">
<rect width="1728" height="6237" fill="#FFFDEC"/>
<path d="M331 3841.5C116 3695 -138.165 3323.78 -60.9999 3214L-132 3299.5V5034.5C-132 5066 -50 4972.5 -57 4938.5C-64 4904.5 105.387 4490.23 559 4400C687.333 4384.5 975.9 4443.1 1181.5 4621.5C1418.7 4793.9 1682 4606 1784 4523.5L1850.5 3951.5C1843.17 3845.33 1910.1 3648.1 1774.5 3522.5C1605 3365.5 1261.5 3591 1126.5 3758C991.5 3925 546 3988 331 3841.5Z" fill="#FFE2E2"/>
<path d="M1148.97 2633.32C945.009 2370.42 -6.53323 2653.82 -21.5332 2653.82C-28.8665 2593.49 -22.1309 2043.5 -38.0272 2029.32C-1055.21 1121.97 550.822 1649.72 1773.47 1754.32L1773.47 3124.83C1551.14 3166.49 1325.47 2860.82 1148.97 2633.32Z" fill="#FFE2E2"/>
<path d="M534.5 1400.62C406.9 1525.82 117.333 1526.83 -19 1498.5L1877.5 2190.12V28.6184C1828.5 5.78505 1594.6 -52.8816 1483 151.118C1343.5 406.118 1512.5 523.619 1647.5 776.119C1782.5 1028.62 1414.5 1030.62 1461 1293.12C1518.66 1618.61 983 1450.12 922 1376.12C873.096 1316.79 694 1244.12 534.5 1400.62Z" fill="#FFE2E2"/>
<path d="M319.52 707.153C201.188 803.104 -59.4649 807.768 -175 798.107L-131.582 -88.4405L914.856 -142.413C1228.59 -135.916 1437 -272.44 1373.5 -43.9128C1234.77 455.365 813.303 178.423 596.951 192.916C423.869 204.51 426.224 365.994 449.036 445.287C455.169 492.596 437.851 611.202 319.52 707.153Z" fill="#FFE2E2"/>
<ellipse cx="38.5" cy="850.5" rx="23.5" ry="22.5" fill="#FFE2E2"/>
<ellipse cx="1512.5" cy="45.5" rx="23.5" ry="22.5" fill="#FFE2E2"/>
<ellipse cx="15" cy="878.5" rx="12" ry="11.5" fill="#FFE2E2"/>
<ellipse cx="1500" cy="79.5" rx="12" ry="11.5" fill="#FFE2E2"/>
<circle cx="27.5" cy="897.5" r="4.5" fill="#FFE2E2"/>
<circle cx="1561.5" cy="40.5" r="4.5" fill="#FFE2E2"/>
<path d="M-54.9488 5964.5C64.8845 5839.67 420.643 5494.99 658.051 5658C902.035 5825.53 1050.55 5992 1315.55 5874.5C1580.55 5757 1245.86 5347.06 1442.5 5091.5C1576 4918 2004 4841 1896 4566C1810.18 4347.48 2177.94 4452.46 2289.55 4467L2312.5 4453C2330.13 4468.47 2318.39 4470.75 2289.55 4467L2034.55 4622.5L1873.05 6792C1142.55 6763.17 -315.949 6695.6 -305.949 6656C-295.949 6616.4 -134.449 6178.5 -54.9488 5964.5Z" fill="#FFE2E2"/>
</g>
<defs>
<clipPath id="clip0_22_20">
<rect width="1728" height="6237" fill="white"/>
</clipPath>
</defs>
</svg>
